<svg width="57" height="58" viewBox="0 0 57 58" fill="none" xmlns="http://www.w3.org/2000/svg">
<path d="M0 0.5H13C18.5228 0.5 23 4.97715 23 10.5V23.5H10C4.47715 23.5 0 19.0228 0 13.5V0.5Z" fill="#E32721"/>
<path fill-rule="evenodd" clip-rule="evenodd" d="M29.9986 8.55361C29.8911 8.57832 28.5134 9.04248 26.9368 9.58515C24.2025 10.5264 24.0638 10.5859 23.9234 10.8804C23.7909 11.1582 23.7921 11.2198 23.9351 11.4963C24.0255 11.6713 24.2003 11.8302 24.3412 11.8656C24.5169 11.9097 25.3861 11.6514 27.3424 10.9737C29.0585 10.3793 30.2987 10.0035 30.6333 9.97656C31.1369 9.93593 31.8254 10.16 41.6685 13.5669C47.4424 15.5654 52.1848 17.2173 52.2073 17.2378C52.2296 17.2583 52.2267 17.2964 52.2006 17.3224C52.1746 17.3483 50.6378 17.8958 48.7855 18.5388C46.9331 19.1818 45.343 19.7366 45.252 19.7715C45.117 19.8233 45.0865 19.7757 45.0865 19.5137C45.0865 19.0328 44.7228 18.3699 44.3086 18.0958C43.7951 17.756 41.0982 17.3138 37.1763 16.9264C35.0128 16.7127 28.9847 16.6286 26.5112 16.7776C23.0594 16.9855 18.0327 17.6556 17.3758 17.9952C16.9272 18.2272 16.5668 18.7545 16.4869 19.2958C16.4375 19.63 16.3763 19.7583 16.2744 19.7411C16.0617 19.705 9.42112 17.3845 9.36224 17.3256C9.33441 17.2978 9.3303 17.2564 9.35316 17.2337C9.37591 17.2109 12.1405 16.2433 15.4965 15.0833C19.0875 13.8422 21.6759 12.8971 21.7866 12.7864C22.1988 12.3742 21.8856 11.611 21.3042 11.611C21.1802 11.611 18.2737 12.5791 14.8452 13.7623C8.84222 15.834 8.59827 15.9277 8.24564 16.2976C7.88333 16.6774 7.8223 16.8777 7.87318 17.5192C7.90198 17.8829 8.2179 18.4113 8.49847 18.5651C8.61458 18.6288 10.4453 19.2819 12.5669 20.0166L16.4243 21.3522L16.4499 24.9578L16.4755 28.5634L15.5222 28.7802C12.717 29.4181 10.5405 31.5339 9.82747 34.3161C9.55355 35.3852 9.55325 36.9602 9.82679 38.0151C10.2269 39.5581 11.2532 41.1876 12.3534 42.0267C12.632 42.2391 12.8589 42.4368 12.8577 42.466C12.8566 42.4953 12.5379 42.6203 12.1497 42.7439C11.0684 43.0881 10.185 43.66 9.19349 44.6578C8.45257 45.4034 8.23704 45.696 7.8557 46.4743C7.21155 47.789 7.06204 48.4289 7.05677 49.8923C7.05169 51.3069 7.19525 51.9654 7.76986 53.1638C8.53753 54.7647 9.66497 55.9061 11.2486 56.6852C12.9787 57.5365 10.8281 57.457 32.9126 57.4863C46.5935 57.5044 52.643 57.4808 52.9132 57.408C53.3873 57.2803 54.0134 56.7314 54.2936 56.1978C54.5744 55.6629 54.572 54.7804 54.2881 54.2287C53.9497 53.5712 53.4999 53.2402 52.5572 52.955C52.2243 52.8543 52.0967 52.5621 51.866 51.3729C51.6843 50.4358 51.6899 49.3285 51.8816 48.3184C52.1151 47.0875 52.2172 46.8982 52.6918 46.8181C53.798 46.6312 54.6884 45.3901 54.5053 44.2904C54.3215 43.1865 53.5315 42.4488 52.3893 42.3145L51.8627 42.2526L51.9035 41.6883C51.9549 40.9784 51.7989 40.4996 51.3564 40.01C50.9502 39.5602 50.5953 39.3588 50.044 39.2646C49.6689 39.2006 49.6352 39.1667 49.4737 38.6915C49.0516 37.4499 48.9835 35.4075 49.3234 34.184C49.5008 33.5451 49.5318 33.511 49.7525 33.7107C50.207 34.1221 50.5478 34.1697 53.0179 34.1675C55.1001 34.1656 55.4369 34.1437 55.7807 33.9875C56.577 33.6257 57.0836 32.7236 56.9666 31.8757C56.9368 31.6603 56.5367 30.5612 56.0773 29.4333L55.242 27.3825L55.5598 26.7528C56.3298 25.2267 55.7133 23.3783 54.2182 22.7311L53.6835 22.4997L53.6819 19.6577C53.6802 16.8723 53.6758 16.8092 53.4602 16.4892C53.3391 16.3096 53.1084 16.0863 52.9475 15.9931C52.6515 15.8216 32.659 8.8667 31.7564 8.62119C31.2871 8.49355 30.407 8.45966 29.9986 8.55361ZM25.9947 18.2634C24.2493 18.3849 21.4165 18.7125 19.6147 19.0015C18.1175 19.2415 18.0143 19.2719 17.9284 19.4976C17.8779 19.6306 17.8487 20.8137 17.8631 22.1442L17.8892 24.5505L27.0035 24.5993C35.8834 24.6469 36.1214 24.653 36.2565 24.8377C36.4866 25.1524 36.4311 25.631 36.1377 25.8617C35.8817 26.0632 35.8379 26.0642 26.8575 26.0642H17.8345L17.8618 27.3093L17.8892 28.5544L30.7554 28.5792L43.6216 28.6039V27.3341V26.0642H41.291C39.0811 26.0642 38.9471 26.0537 38.7032 25.8617C38.3807 25.6081 38.3503 25.0854 38.6411 24.7946C38.8258 24.61 38.9666 24.5993 41.229 24.5993H43.6216V22.0233C43.6216 20.0047 43.5937 19.4242 43.4923 19.3401C43.1971 19.0951 38.333 18.4529 35.2737 18.255C33.4709 18.1384 27.716 18.1436 25.9947 18.2634ZM48.5533 20.1558L45.1353 21.3525L45.1097 24.9778L45.0841 28.6032H47.6568H50.2294L50.4833 27.9631L50.7373 27.3229L50.5012 26.975C50.0416 26.2978 49.9315 25.2278 50.2306 24.3481C50.4321 23.7559 51.3175 22.8297 51.8506 22.6538L52.2154 22.5334V20.7343C52.2154 19.3538 52.1869 18.938 52.0933 18.9472C52.0262 18.9537 50.4331 19.4976 48.5533 20.1558ZM52.2389 24.1105C51.3697 24.6404 51.2835 25.82 52.061 26.5463C52.4414 26.9018 53.3139 26.9468 53.7679 26.6344C54.6695 26.014 54.6745 24.7475 53.778 24.1354C53.3628 23.8521 52.6808 23.841 52.2389 24.1105ZM51.1935 30.0722C50.7887 31.0681 50.4576 31.9951 50.4576 32.1322C50.4576 32.6695 50.6127 32.7048 52.9799 32.7048C55.0149 32.7048 55.1568 32.6931 55.3404 32.5095C55.4478 32.402 55.5357 32.2374 55.5357 32.1435C55.5357 32.0496 55.1966 31.1378 54.7822 30.1171L54.0286 28.2614H52.979H51.9294L51.1935 30.0722ZM15.6919 30.222C14.9485 30.4173 13.8781 30.9603 13.319 31.426C11.8665 32.6355 11.0722 34.3132 11.0722 36.1716C11.0722 38.52 12.3717 40.6119 14.4712 41.6434C15.8468 42.3191 14.5421 42.2751 33.1859 42.2751H50.0528L50.2551 42.0178C50.5276 41.6715 50.5178 41.1938 50.2327 40.9261L50.0079 40.7149L38.1825 40.6894C26.7098 40.6645 26.3508 40.6582 26.1514 40.4777C26.0114 40.351 25.9458 40.1738 25.9458 39.9218C25.9458 39.1977 25.1101 39.2478 37.1981 39.2478C45.7881 39.2478 48.0159 39.2227 48.0149 39.1257C48.0142 39.0586 47.9269 38.5861 47.8208 38.0759C47.5693 36.8649 47.5693 35.4782 47.8208 34.2673C47.9269 33.757 48.0142 33.2847 48.0149 33.2175C48.0159 33.1205 45.736 33.0954 36.9373 33.0954H25.8585L25.8289 35.2901C25.8005 37.3956 25.7907 37.4935 25.5863 37.6978C25.29 37.9937 24.9741 37.9587 23.8297 37.5028L22.8459 37.1108L21.8324 37.5071C21.2749 37.725 20.6913 37.901 20.5355 37.898C19.9682 37.8875 19.9447 37.7951 19.8911 35.3627L19.8423 33.1442L18.1822 33.1479C16.687 33.1513 16.4751 33.1729 16.0503 33.3656C15.3197 33.6971 14.8747 34.1055 14.5141 34.7755C14.2168 35.3278 14.1832 35.4697 14.1832 36.1716C14.1832 36.8734 14.2168 37.0153 14.5141 37.5677C14.8735 38.2354 15.3154 38.6421 16.0503 38.9812C16.5034 39.1903 16.6616 39.2009 20.0473 39.2478C22.8363 39.2864 23.6063 39.3246 23.7338 39.4306C23.9713 39.628 23.9451 40.2465 23.6893 40.4777C23.495 40.6534 23.2877 40.6638 19.9539 40.6638C16.498 40.6638 16.4104 40.659 15.7564 40.4332C14.4433 39.9798 13.2795 38.7926 12.887 37.5059C12.6669 36.7844 12.6669 35.5588 12.887 34.8373C13.2704 33.5806 14.4133 32.3943 15.705 31.9125L16.3267 31.6807L32.6687 31.6311L49.0106 31.5817L49.2398 31.0184C49.3659 30.7085 49.4966 30.3679 49.5304 30.2615C49.5914 30.0692 49.4948 30.0681 32.9104 30.0745C18.6953 30.08 16.1496 30.1018 15.6919 30.222ZM21.356 34.6051V36.1199L21.8687 35.9103C22.7541 35.548 22.9064 35.5589 24.2151 36.077C24.3774 36.1412 24.3868 36.0493 24.3616 34.6449L24.3345 33.1442L22.8452 33.1173L21.356 33.0903V34.6051ZM13.4499 43.889C12.3051 44.0967 11.2054 44.6919 10.3141 45.5862C9.49378 46.4093 9.08236 47.0637 8.74251 48.0856C8.42357 49.0449 8.41829 50.7104 8.73109 51.6989C9.32132 53.5644 10.8696 55.1312 12.7622 55.7786L13.397 55.9958L32.9588 56.0216L52.5205 56.0475L52.8188 55.7491C53.0698 55.4982 53.1072 55.4012 53.0545 55.1377C53.0201 54.9655 52.9039 54.7365 52.7964 54.6289C52.6115 54.4438 52.4374 54.4307 49.5681 54.3845C46.7093 54.3385 46.5273 54.3248 46.3968 54.1461C46.1668 53.8311 46.2223 53.3527 46.5157 53.1221C46.7567 52.9324 46.8978 52.9196 48.7445 52.9196H50.716L50.5214 52.2116C50.241 51.1913 50.241 48.5933 50.5214 47.5729L50.716 46.8649H47.1688H43.6216V49.0198C43.6216 50.352 43.5821 51.2485 43.518 51.3683C43.295 51.7851 43.0045 51.7763 41.7975 51.3159L40.6673 50.885L39.5538 51.3204C38.5487 51.7134 38.4147 51.7435 38.1774 51.6297C37.7095 51.4054 37.6676 51.1847 37.666 48.9383L37.6646 46.8611L25.7261 46.8875L13.7876 46.9138L13.2888 47.1769C12.6554 47.5111 11.9466 48.2957 11.7458 48.8849C11.2671 50.2899 11.8722 51.864 13.1666 52.581L13.69 52.8708L28.7432 52.9196C43.3726 52.9671 43.8023 52.9737 44.002 53.1545C44.271 53.3979 44.2754 53.926 44.0108 54.1906C43.8149 54.3865 43.7396 54.3873 28.6543 54.3615L13.4947 54.3356L12.7349 53.9728C11.7308 53.4935 11.018 52.7836 10.5492 51.7962C9.90677 50.4436 10.0055 48.7785 10.8022 47.5252C11.4487 46.5082 12.5393 45.7541 13.7192 45.508C14.0868 45.4313 19.7816 45.4001 33.38 45.4001H52.5234L52.8202 45.1032C53.0698 44.8536 53.1072 44.7564 53.0545 44.4932C53.0201 44.321 52.9038 44.092 52.7962 43.9844C52.6019 43.7901 52.4707 43.7887 33.3894 43.7729C17.6098 43.7597 14.0482 43.7805 13.4499 43.889ZM39.1294 48.3786C39.1294 49.2111 39.1523 49.8923 39.1802 49.8923C39.2081 49.8923 39.5013 49.7824 39.8318 49.6481C40.577 49.3454 40.726 49.345 41.5198 49.6437L42.1568 49.8835V48.3742V46.8649H40.6431H39.1294V48.3786Z" fill="#1C3761"/>
</svg>
