<svg width="58" height="58" viewBox="0 0 58 58" fill="none" xmlns="http://www.w3.org/2000/svg">
<path d="M0 0.5H13C18.5228 0.5 23 4.97715 23 10.5V23.5H10C4.47715 23.5 0 19.0228 0 13.5V0.5Z" fill="#E32721"/>
<path fill-rule="evenodd" clip-rule="evenodd" d="M30.7303 8.88983C24.5841 9.19286 18.6932 12.2095 14.7732 17.0612C14.3433 17.5933 14.2264 17.8107 14.2264 18.0783C14.2264 18.7785 15.0137 19.0296 15.4867 18.4802C15.6261 18.3184 16.1006 17.767 16.5412 17.2549C17.3699 16.2916 18.8799 14.9251 19.9946 14.1297C20.7569 13.5857 22.4481 12.5755 22.5035 12.6308C22.525 12.6524 22.2117 13.3001 21.8074 14.0701C21.403 14.8402 21.0452 15.6461 21.0124 15.8609C20.9671 16.1577 21.0465 16.5664 21.3428 17.5615C21.8 19.0972 21.8754 19.1925 23.1556 19.8536C24.0632 20.3225 24.4995 20.4029 25.0355 20.2004C25.6252 19.9776 25.8215 19.6567 26.3565 18.0413C26.7716 16.7878 26.9024 16.4957 27.0488 16.4957C27.4651 16.4957 30.4894 16.8996 30.5504 16.9633C30.6837 17.1027 32.2712 21.5268 32.2097 21.5877C32.1748 21.6223 31.6139 21.8775 30.9631 22.155C29.7958 22.6527 29.5584 22.8418 29.5584 23.2742C29.5584 23.5414 29.9586 23.9176 30.2429 23.9176C30.571 23.9176 32.7595 23.0142 33.1218 22.7291C33.4708 22.4546 33.6763 22.0127 33.6763 21.5365C33.6763 21.2674 33.3748 20.3082 32.782 18.691C31.8171 16.0591 31.6097 15.704 30.9284 15.5172C30.5273 15.4073 27.4245 15.0308 26.9217 15.0309C26.4514 15.0312 25.9438 15.3075 25.6752 15.7094C25.5515 15.8946 25.2504 16.6746 25.0063 17.4428C24.7621 18.2109 24.5208 18.8394 24.4701 18.8394C24.4193 18.8394 24.0781 18.6886 23.7118 18.5041L23.0457 18.1686L22.7399 17.1281L22.4339 16.0875L23.5527 13.8629L24.6715 11.6383L25.2351 11.431C25.7219 11.252 27.0588 10.8847 27.9227 10.6924C28.1824 10.6346 28.1912 10.6461 28.1912 11.0409C28.1912 11.5639 28.5589 12.2024 28.9898 12.4277C29.1683 12.5212 29.9407 12.7671 30.7063 12.9743C32.2179 13.3835 32.1124 13.3211 33.549 14.6571L34.2679 15.3259L34.4094 16.6167C34.4872 17.3267 34.6203 18.0537 34.7051 18.2325C34.909 18.6622 35.3474 18.9809 35.9971 19.1719C36.6941 19.3766 36.9318 19.3686 37.4391 19.123C37.9792 18.8616 38.2208 18.4411 38.6785 16.9663L39.0326 15.8256L39.5445 15.6369C39.8261 15.5331 40.4167 15.3295 40.857 15.1844C41.2973 15.0393 41.7752 14.828 41.9191 14.7148C42.2074 14.4881 42.5412 13.8358 42.5446 13.4928C42.5457 13.372 42.5818 13.273 42.6245 13.273C42.6673 13.273 42.9918 13.4632 43.3456 13.6955C45.6219 15.1906 47.7992 17.3629 49.2574 19.5938C49.8124 20.443 50.6983 22.0521 50.6386 22.103C50.6193 22.1196 49.7025 22.0279 48.6014 21.8994C46.3645 21.6383 45.9226 21.6468 45.4834 21.9595C45.3163 22.0784 44.7843 22.7813 44.3012 23.5215L43.4229 24.8671L41.6027 25.3871C39.5908 25.9618 39.2452 26.1681 39.0368 26.9186C38.9759 27.1378 38.9343 28.4941 38.934 30.2708L38.9334 33.255L38.5984 33.9209C37.9683 35.1731 37.9272 36.6191 38.4867 37.8439L38.7145 38.3426L38.4561 38.4952C38.3139 38.5792 37.9946 38.8267 37.7463 39.0451C37.3357 39.4065 37.283 39.4277 37.1621 39.2802C37.089 39.191 36.7847 38.9376 36.486 38.717L35.9429 38.3159L36.1628 37.8373C36.9232 36.1822 36.549 34.1476 35.2395 32.817C33.6118 31.1633 31.0968 30.988 29.2389 32.399C28.5627 32.9125 27.898 33.8171 27.6974 34.4966C27.5464 35.0079 27.5745 34.9992 26.4238 34.8904L25.7792 34.8296L25.6065 34.349C25.3591 33.6611 24.6851 32.7941 24.0368 32.3299C23.1927 31.7254 22.5439 31.5107 21.4471 31.4728C20.5267 31.4411 20.4947 31.4317 19.1906 30.8091L17.8677 30.1774L17.8017 29.5335C17.7654 29.1794 17.7603 28.8499 17.7903 28.8014C17.8202 28.7529 18.2187 28.5914 18.6758 28.4426C19.4097 28.2035 19.5322 28.1877 19.7231 28.3072C21.5983 29.4809 21.8868 29.5682 22.5932 29.1743C22.8178 29.0491 23.6343 28.2681 24.4098 27.4367L25.8186 25.9266L26.834 25.4804C27.6234 25.1335 27.8785 24.9734 27.9803 24.7615C28.155 24.3977 27.9838 23.9767 27.5959 23.816C27.3385 23.7094 27.2023 23.7423 26.2127 24.1493L25.1151 24.6008L23.5037 26.2625L21.8924 27.9241L20.9245 27.3369C19.7553 26.6274 19.5633 26.6096 18.1651 27.0805C16.9745 27.4814 16.77 27.6085 16.478 28.128C16.2727 28.4932 16.2574 28.607 16.3165 29.3252C16.4463 30.8988 16.6101 31.1613 17.8501 31.7842C18.3278 32.024 18.7186 32.2345 18.7186 32.2518C18.7186 32.2691 18.5425 32.4249 18.3272 32.5978L17.9359 32.9123L17.4727 32.527C16.6749 31.8635 15.569 31.4371 14.6453 31.4371H14.2264L14.2244 30.8267C14.2211 29.8025 14.0675 29.0131 13.8043 28.6681C13.6576 28.4757 13.2011 28.1658 12.6272 27.869C11.8866 27.4861 11.6895 27.3404 11.6885 27.1751C11.6865 26.8061 12.2377 24.7793 12.6145 23.7711C12.8151 23.234 13.172 22.4082 13.4076 21.936C13.8834 20.9819 13.9455 20.5315 13.6392 20.2543C13.4074 20.0445 12.9357 20.0216 12.7097 20.2092C12.3498 20.5078 11.2448 23.0439 10.7745 24.65C10.469 25.6939 10.1822 27.0517 10.0112 28.2633C9.85159 29.3945 9.85023 32.4747 10.0088 33.732C10.0873 34.3545 10.1034 34.9388 10.0534 35.3433C9.94984 36.1802 10.0561 37.0478 10.3518 37.78C10.5832 38.3528 10.5854 38.3787 10.41 38.4725C9.97347 38.7061 9.00023 39.61 8.59036 40.1626C8.06302 40.8734 7.46038 42.0931 7.23206 42.9117C6.98646 43.7921 6.91985 47.4545 7.13743 48.1097C7.46575 49.098 8.40374 49.7965 9.40286 49.7965H9.91214L9.94671 52.7017C9.97933 55.4466 9.9928 55.6286 10.1901 55.9976C10.4333 56.4529 10.7225 56.735 11.1991 56.982C11.4687 57.1218 11.7677 57.1592 12.6151 57.1589C13.5386 57.1587 13.7485 57.1278 14.1111 56.9389L14.5329 56.7192L14.99 56.9432C15.382 57.1352 15.5932 57.1662 16.4725 57.1606C17.0365 57.1571 17.6101 57.1071 17.7472 57.0495C17.9259 56.9745 18.0502 56.9754 18.1867 57.0526C18.2912 57.1118 18.8382 57.162 19.4022 57.1641C20.283 57.1674 20.4929 57.1358 20.8914 56.9402L21.3553 56.7127L21.8192 56.9402C22.2187 57.1363 22.4253 57.1671 23.3084 57.1623C24.4879 57.1558 24.9338 56.9919 25.4388 56.3793C25.8507 55.8797 25.9451 55.3885 25.9451 53.7466V52.3143L26.1665 52.3699C26.2883 52.4005 26.6179 52.4748 26.899 52.5351L27.41 52.6447V53.9117C27.41 55.3889 27.5127 55.8897 27.9163 56.3793C28.4213 56.9919 28.8672 57.1558 30.0467 57.1623C30.9298 57.1671 31.1365 57.1363 31.536 56.9402L31.9998 56.7127L32.4637 56.9402C32.8632 57.1363 33.0699 57.1671 33.953 57.1623C35.1325 57.1558 35.5784 56.9919 36.0833 56.3793C36.4865 55.8902 36.5897 55.3889 36.5897 53.9191V52.6596L37.1024 52.5442C37.3843 52.4808 37.7102 52.4038 37.8264 52.373C38.036 52.3176 38.038 52.3308 38.0714 53.9621C38.1013 55.4185 38.1291 55.6517 38.3145 55.9976C38.7892 56.8835 39.3047 57.1207 40.7549 57.1207C41.6167 57.1207 41.8758 57.0847 42.2229 56.9167L42.6444 56.7127L43.0827 56.9249C43.4825 57.1183 43.6269 57.1324 44.7185 57.0845C45.3771 57.0555 46.0037 57.035 46.1112 57.0391C46.2186 57.0431 46.8856 57.052 47.5935 57.0591C48.7475 57.0705 48.9079 57.0514 49.1465 56.873L49.4127 56.6742L49.8616 56.9033C50.2724 57.1131 50.4111 57.13 51.4987 57.1022C52.6394 57.073 52.7037 57.06 53.1047 56.778C53.357 56.6005 53.6211 56.2924 53.7718 55.9997C54.0201 55.5178 54.0215 55.5003 54.0534 52.6686L54.0854 49.822L54.7086 49.772C55.1386 49.7375 55.4684 49.6419 55.7721 49.464C56.2309 49.1951 56.7463 48.5487 56.8585 48.1016C56.8945 47.9585 56.9629 47.8174 57.0107 47.7879C57.0584 47.7583 57.0975 46.8553 57.0975 45.781C57.0975 44.6921 57.0597 43.8513 57.0121 43.8807C56.9653 43.9097 56.8972 43.7099 56.861 43.4369C56.6416 41.7831 55.3391 39.683 53.9314 38.7135L53.4146 38.3575L53.6691 37.7538C53.9052 37.1937 53.9242 37.0403 53.9298 35.6363C53.9332 34.8038 53.9938 33.4854 54.0643 32.7066C54.647 26.2741 52.0456 19.4416 47.3165 14.9839C42.7336 10.6639 37.0565 8.57802 30.7303 8.88983ZM30.7791 10.3538C30.1883 10.3881 29.6912 10.4218 29.6746 10.4286C29.6579 10.4354 29.6579 10.604 29.6746 10.8032L29.7049 11.1655L31.281 11.6122C32.6761 12.0076 32.906 12.1027 33.2829 12.4404C34.8616 13.8548 35.4258 14.4112 35.5517 14.6779C35.6306 14.8452 35.7443 15.4434 35.8042 16.0074C35.9856 17.7142 35.964 17.6475 36.3707 17.7598C36.5685 17.8143 36.766 17.8232 36.8099 17.7794C36.8536 17.7356 37.0824 17.1144 37.3182 16.3989C37.8728 14.7163 37.9242 14.6647 39.6616 14.0523C40.3996 13.7922 41.0198 13.5631 41.0396 13.5433C41.0594 13.5234 41.1043 13.2631 41.1394 12.9647L41.2031 12.4224L40.1415 11.9767C37.0498 10.6787 34.0719 10.1625 30.7791 10.3538ZM45.3722 24.5279C44.2826 26.1739 44.3157 26.1511 42.1561 26.7514C41.3236 26.9828 40.5875 27.2142 40.5203 27.2658C40.4288 27.336 40.3983 27.9311 40.3983 29.6424C40.3983 30.898 40.4312 31.9254 40.4715 31.9253C40.5118 31.9253 40.7865 31.8333 41.0819 31.7209C41.7623 31.4619 42.8241 31.3792 43.5447 31.5289C44.2392 31.6732 45.1099 32.1018 45.653 32.5668L46.0666 32.9208L46.4522 32.5725C47.9597 31.2105 50.5053 31.0792 52.0812 32.2821C52.3263 32.4692 52.5511 32.598 52.5809 32.5683C52.7017 32.4475 52.7212 30.4882 52.6133 29.3179C52.3895 26.8911 51.6029 23.76 51.1955 23.6747C51.0177 23.6375 46.4901 23.1339 46.3488 23.1356C46.3183 23.136 45.8788 23.7625 45.3722 24.5279ZM11.3423 29.8354C11.2692 30.8114 11.3232 32.4726 11.4316 32.581C11.4653 32.6147 11.5915 32.5533 11.7121 32.4445C11.8327 32.3356 12.1254 32.1337 12.3623 31.9957L12.7933 31.7446L12.7748 31.0294C12.7647 30.6359 12.7317 30.1346 12.7015 29.9151C12.645 29.5047 12.6181 29.4829 11.4771 28.9195C11.442 28.9022 11.3814 29.3143 11.3423 29.8354ZM13.7381 32.9875C12.7955 33.2976 11.9125 34.1276 11.6345 34.9648C10.9645 36.9819 12.3952 39.0606 14.4617 39.0725C15.3409 39.0776 15.9836 38.8367 16.604 38.2697L17.124 37.7945L16.9378 37.0816C16.73 36.2857 16.7558 35.3793 17.0065 34.6687L17.151 34.259L16.7088 33.8168C16.4657 33.5736 16.0603 33.2831 15.808 33.1713C15.3132 32.9518 14.158 32.8493 13.7381 32.9875ZM20.3792 33.0589C19.0541 33.5404 18.2941 34.6204 18.2906 36.0269C18.2884 36.9038 18.5051 37.4599 19.1007 38.106C20.5827 39.7139 23.3012 39.2407 24.2157 37.216C24.6915 36.1621 24.3928 34.6699 23.534 33.8111C22.7459 33.023 21.3765 32.6966 20.3792 33.0589ZM31.0238 33.0589C29.6987 33.5404 28.9386 34.6204 28.9351 36.0269C28.9329 36.9038 29.1496 37.4599 29.7452 38.106C31.2273 39.7139 33.9457 39.2407 34.8602 37.216C35.3361 36.1621 35.0373 34.6699 34.1785 33.8111C33.3905 33.023 32.021 32.6966 31.0238 33.0589ZM41.6678 33.0533C40.9335 33.2834 40.2977 33.8447 39.91 34.605C39.6055 35.2021 39.5688 35.3563 39.5737 36.0174C39.5776 36.5502 39.6364 36.8866 39.7824 37.2107C40.0213 37.7414 40.6087 38.4207 41.0065 38.6264C41.6675 38.9682 41.8699 39.5358 41.4725 39.9332C41.175 40.2307 40.7191 40.1819 40.1378 39.7905L39.636 39.4524L39.2115 39.7541C38.978 39.92 38.6728 40.1619 38.5332 40.2915L38.2795 40.5272L38.6977 41.3605C39.5041 42.9673 39.5194 43.1199 39.5194 49.5671C39.5194 54.5269 39.538 55.2484 39.6714 55.4388C39.8088 55.635 39.9049 55.6558 40.6724 55.6544C41.1393 55.6535 41.5735 55.6197 41.6372 55.5791C41.9239 55.397 41.9608 54.8926 41.9608 51.1643V47.3692L42.2181 47.1669C42.5427 46.9115 42.746 46.9115 43.0706 47.1669L43.328 47.3692V51.1643C43.328 54.8926 43.3649 55.397 43.6515 55.5791C43.7153 55.6197 44.1494 55.6535 44.6163 55.6544C45.3838 55.6558 45.4799 55.635 45.6173 55.4388C45.7505 55.2487 45.7694 54.5513 45.7694 49.8235C45.7694 44.5556 45.7741 44.4207 45.9647 44.2301C46.2555 43.9392 46.7782 43.9696 47.0318 44.2921C47.2207 44.5322 47.2342 44.6752 47.2342 46.4405V48.3316H47.6661C48.0183 48.3316 48.1536 48.2761 48.3986 48.0311L48.6991 47.7307L48.6976 45.8583C48.6966 44.5554 48.6525 43.8005 48.5524 43.3761C48.2417 42.0586 47.3805 40.7473 46.2772 39.9119L45.6687 39.4512L45.0691 39.8387C44.7394 40.0517 44.3529 40.2262 44.2102 40.2262C43.8415 40.2262 43.523 39.8953 43.5247 39.5143C43.5267 39.1063 43.5693 39.0525 44.2103 38.6455C45.2495 37.9857 45.6988 37.2003 45.7106 36.0223C45.717 35.3765 45.6778 35.2036 45.3937 34.6265C44.7087 33.2351 43.166 32.5837 41.6678 33.0533ZM48.5354 33.0367C47.9834 33.2172 47.5018 33.5263 47.1525 33.9242C46.862 34.2549 46.8618 34.2558 47.0146 34.6772C47.2145 35.229 47.2135 36.6984 47.0127 37.32L46.8632 37.7831L47.3894 38.264C48.0791 38.8943 48.6652 39.0927 49.667 39.0347C50.2528 39.0008 50.5277 38.9303 50.9312 38.7106C52.6717 37.7634 53.075 35.4425 51.7544 33.9736C51.1438 33.2944 50.4948 32.978 49.6268 32.9362C49.2226 32.9168 48.7766 32.9578 48.5354 33.0367ZM25.9075 36.4321C25.886 36.5047 25.8175 36.8058 25.7552 37.1012C25.693 37.3966 25.5622 37.789 25.4647 37.973L25.2873 38.3079L25.836 38.713C26.1377 38.9357 26.4445 39.191 26.5176 39.2802C26.6385 39.4277 26.6911 39.4065 27.1018 39.0451C27.35 38.8267 27.6697 38.579 27.8121 38.4948L28.0712 38.3418L27.8407 37.8442C27.7139 37.5706 27.5821 37.1591 27.5476 36.9298C27.5132 36.7005 27.4573 36.4964 27.4232 36.4763C27.3891 36.4561 27.0429 36.4084 26.6538 36.37C26.0986 36.3152 25.9382 36.3286 25.9075 36.4321ZM10.8604 39.9593C9.75325 40.7884 8.90267 42.1297 8.61107 43.5062C8.43548 44.3351 8.40823 47.4528 8.57376 47.7766C8.7596 48.1399 9.07571 48.3271 9.50716 48.3295L9.91487 48.3316L9.94661 46.3697C9.97777 44.4436 9.98255 44.4044 10.2089 44.2213C10.4816 44.0007 10.8913 43.9799 11.156 44.1733C11.3387 44.3069 11.3473 44.5103 11.3944 49.834C11.4398 54.9663 11.4555 55.3683 11.6175 55.5304C11.8711 55.7839 13.3582 55.784 13.6123 55.5304C13.7751 55.3679 13.7904 54.9488 13.8378 49.3292C13.8882 43.3588 13.8909 43.2959 14.1148 42.6187C14.2391 42.2428 14.5088 41.6205 14.7143 41.2359L15.0877 40.5367L14.4318 40.5306C13.6122 40.5228 12.6694 40.2362 12.0211 39.7975L11.5247 39.4618L10.8604 39.9593ZM17.7647 39.8754C16.9948 40.4422 16.3455 41.209 15.9405 42.0301C15.4054 43.1144 15.3037 43.7269 15.3021 45.8733L15.3006 47.7607L15.5861 48.0462C15.8184 48.2785 15.9547 48.3316 16.3185 48.3316H16.7655V46.4405C16.7655 44.6752 16.7789 44.5322 16.9679 44.2921C17.2215 43.9696 17.7442 43.9392 18.035 44.2301C18.2256 44.4207 18.2303 44.5556 18.2303 49.8345C18.2303 56.2545 18.1171 55.7047 19.4389 55.7047C20.7232 55.7047 20.6177 56.0828 20.6514 51.3595L20.6799 47.3628L20.9331 47.1637C21.2536 46.9115 21.4579 46.9123 21.7816 47.1669L22.0389 47.3692V51.1739C22.0389 55.6129 22.0367 55.5996 22.7695 55.7095C23.019 55.747 23.4226 55.7551 23.6664 55.7275C24.4852 55.6352 24.4249 56.1031 24.4835 49.378C24.5419 42.6683 24.5118 42.9641 25.2976 41.3771L25.719 40.5261L25.4659 40.2909C25.3266 40.1616 25.0246 39.9222 24.7949 39.7589L24.3769 39.462L23.8841 39.7936C22.4494 40.7591 20.2604 40.7585 18.8245 39.7923L18.3298 39.4594L17.7647 39.8754ZM28.3638 39.9142C27.2637 40.7473 26.4022 42.06 26.0918 43.3761C25.9915 43.8014 25.9476 44.5571 25.9466 45.8733L25.9451 47.7607L26.2306 48.0462C26.4629 48.2785 26.5992 48.3316 26.963 48.3316H27.41V46.4405C27.41 44.6752 27.4235 44.5322 27.6124 44.2921C27.8739 43.9597 28.387 43.9387 28.6757 44.2485C28.8711 44.4582 28.8748 44.5629 28.8748 49.8529C28.8748 56.1036 28.8029 55.6588 29.8265 55.7328C30.6274 55.7907 31.0758 55.6329 31.2108 55.2457C31.2793 55.0491 31.3162 53.6159 31.3162 51.1561V47.3692L31.5736 47.1669C31.8972 46.9123 32.1015 46.9115 32.422 47.1637L32.6752 47.3628L32.7037 51.3595C32.7374 56.0827 32.632 55.7047 33.916 55.7047C35.238 55.7047 35.1248 56.2545 35.1248 49.8345C35.1248 44.5556 35.1295 44.4207 35.3201 44.2301C35.611 43.9392 36.1336 43.9696 36.3872 44.2921C36.5762 44.5322 36.5897 44.6752 36.5897 46.4405V48.3316H37.0367C37.4004 48.3316 37.5368 48.2785 37.7691 48.0462L38.0545 47.7607L38.0531 45.8733C38.0521 44.5571 38.0081 43.8014 37.9078 43.3761C37.5975 42.06 36.736 40.7473 35.6359 39.9142L35.0305 39.4559L34.5331 39.7905C33.8398 40.2571 32.9289 40.5191 31.9998 40.5191C31.0707 40.5191 30.1599 40.2571 29.4665 39.7905L28.9692 39.4559L28.3638 39.9142ZM51.9654 39.7847C51.2714 40.2498 50.402 40.5191 49.5948 40.5191H48.9218L49.3449 41.3736C50.1326 42.9642 50.1023 42.6682 50.1607 49.3665C50.2031 54.2224 50.2376 55.3632 50.3467 55.4944C50.4527 55.622 50.6577 55.6556 51.3233 55.6544C51.7868 55.6535 52.218 55.6197 52.2818 55.5791C52.578 55.3908 52.6053 54.8934 52.6053 49.6925C52.6053 44.5556 52.6101 44.4206 52.8006 44.2301C53.0473 43.9834 53.4918 43.9794 53.7908 44.2213C54.0171 44.4044 54.0219 44.4436 54.0531 46.3697L54.0848 48.3316H54.4147C54.8652 48.3316 55.1788 48.1721 55.3724 47.8443C55.5915 47.4733 55.6023 44.5178 55.3881 43.4976C55.0994 42.1229 54.1582 40.6701 53.0419 39.8764L52.4532 39.4577L51.9654 39.7847ZM7.04105 45.8902C7.04105 46.9913 7.0553 47.4417 7.07269 46.8912C7.09007 46.3407 7.09007 45.4397 7.07269 44.8892C7.0553 44.3388 7.04105 44.7892 7.04105 45.8902ZM15.3006 52.4693C15.3006 55.8058 15.2565 55.6607 16.2956 55.7359L16.8926 55.7791L16.829 55.4611C16.7941 55.2862 16.7655 53.9401 16.7655 52.4698V49.7965H16.2835C16.0185 49.7965 15.6889 49.7536 15.5511 49.7013L15.3006 49.606V52.4693ZM25.9451 50.1868V50.7676L26.5067 50.9244C26.8155 51.0107 27.1451 51.1028 27.2391 51.1291C27.3903 51.1713 27.41 51.0971 27.41 50.4866V49.7965H26.9281C26.663 49.7965 26.3334 49.7536 26.1956 49.7013L25.9451 49.606V50.1868ZM37.8104 49.6988C37.703 49.745 37.3843 49.7858 37.1024 49.7896L36.5897 49.7965V50.4866C36.5897 51.0971 36.6094 51.1713 36.7606 51.1291C36.8545 51.1028 37.1841 51.0107 37.493 50.9244L38.0545 50.7676V50.1844C38.0545 49.8636 38.0435 49.6043 38.0301 49.608C38.0167 49.6118 37.9178 49.6526 37.8104 49.6988ZM48.4549 49.7065C48.3475 49.7484 48.0288 49.7858 47.7469 49.7896L47.2342 49.7965L47.2328 52.5064C47.2322 53.9969 47.205 55.3152 47.1727 55.4361C47.116 55.6474 47.138 55.6558 47.7448 55.6558C48.749 55.6558 48.7067 55.8007 48.6761 52.4628C48.6506 49.675 48.6471 49.6314 48.4549 49.7065Z" fill="#1C3761"/>
</svg>
