<svg width="57" height="58" viewBox="0 0 57 58" fill="none" xmlns="http://www.w3.org/2000/svg">
<path d="M0 0.5H13C18.5228 0.5 23 4.97715 23 10.5V23.5H10C4.47715 23.5 0 19.0228 0 13.5V0.5Z" fill="#E32721"/>
<path fill-rule="evenodd" clip-rule="evenodd" d="M35.0276 10.2461L33.2026 12.1016L33.1694 22.6484C33.151 28.4492 33.1436 33.4152 33.1534 33.6836C33.1663 34.0453 34.3467 34.1719 37.7018 34.1719C42.2323 34.1719 42.2327 34.1719 43.3272 35.3438C44.7748 36.8934 46.6928 36.9496 48.1569 35.4859C49.5385 34.1039 49.5385 32.2867 48.1569 30.9047C46.6928 29.441 44.7748 29.4973 43.3272 31.0469C42.2659 32.1828 42.1237 32.2188 38.6784 32.2188H35.1241V22.5297V12.8406L36.4123 11.5922C38.2635 9.79766 39.6104 9.90352 41.6573 12.0039C42.8127 13.1898 43.3104 14.0547 43.3987 15.0312L43.5225 16.3984L45.8663 16.516C48.0202 16.6238 48.3444 16.7648 49.8702 18.2574C51.3663 19.7211 51.5303 20.0664 51.5303 21.7531V23.625H48.8834H46.2362L46.383 22.0836C46.5022 20.8363 46.3401 20.3523 45.5323 19.5445C44.1483 18.1605 42.4272 18.2148 40.9534 19.6887C39.6725 20.9695 39.535 21.9574 40.4045 23.6387C41.1705 25.1199 42.0108 25.3043 48.1913 25.3473L53.2881 25.3828V21.9395V18.4961L51.2663 16.5684C49.3881 14.7773 49.1041 14.6406 47.2623 14.6406C45.4592 14.6406 45.2803 14.5602 45.2803 13.7496C45.2803 13.1824 44.46 12.0465 43.0229 10.6246C40.8803 8.5043 40.6659 8.39062 38.8088 8.39062C36.9916 8.39062 36.7229 8.52227 35.0276 10.2461ZM22.0381 9.5082C20.3885 10.527 19.6202 11.498 19.2151 13.077C18.8936 14.3289 18.7155 14.4641 17.0807 14.6977C14.8276 15.0199 14.0432 15.4449 12.5377 17.1598C11.1409 18.7508 10.3553 21.2289 10.7209 22.893C10.9358 23.8723 10.7393 24.3039 9.42914 25.725C8.57914 26.6473 7.66313 28.0703 7.39321 28.8875C6.76821 30.7809 7.11586 33.8387 8.15688 35.6027C8.91821 36.8934 8.92328 36.9992 8.2811 38.1969C7.28657 40.0512 7.38071 44.0801 8.46703 46.1457C9.60492 48.3098 11.7827 50.0398 14.1245 50.6402C15.7588 51.059 16.126 51.3348 16.6186 52.5148C18.2768 56.484 22.5123 58.2551 26.4311 56.618C28.2866 55.8426 29.1737 55.0207 30.0873 53.2305C30.7842 51.8656 30.8272 50.6477 30.8256 32.332C30.8245 13.6137 30.7952 12.8352 30.0479 11.6098C28.4186 8.9375 24.5889 7.93242 22.0381 9.5082ZM22.5096 11.5219C21.5393 12.2848 20.8409 13.8383 20.5952 15.7789C20.4838 16.657 20.3092 16.7242 18.0596 16.7555C15.9467 16.7848 15.4944 16.932 14.4553 17.9277C12.7897 19.5238 12.2475 21.3488 12.8455 23.3457L13.317 24.9195L11.5534 26.427C8.63852 28.9188 8.1686 32.3633 10.3534 35.2277L11.4342 36.6449L10.5948 38.1035C7.7643 43.0215 10.2717 48.1492 15.9026 48.959C17.5651 49.198 17.6811 49.298 18.1549 50.9027C18.4295 51.8332 18.9756 52.95 19.3686 53.3844C21.835 56.1094 26.2733 55.8156 28.1084 52.8051C28.8377 51.6098 28.8713 50.7078 28.8725 32.2863L28.8741 13.018L27.7323 11.8762C26.3206 10.4645 24.0498 10.3105 22.5096 11.5219ZM42.128 21.1187C41.433 21.9563 42.133 23.0391 43.3698 23.0391C44.0569 23.0391 44.3385 22.7926 44.4354 22.1066C44.6444 20.6309 43.0866 19.9641 42.128 21.1187ZM21.6475 24.6043C19.1631 25.4832 17.217 28.7324 18.3541 30.1031C18.8663 30.7199 19.8897 30.3969 19.8897 29.6184C19.8897 28.225 21.1006 26.7695 22.6448 26.307C23.8823 25.9363 24.1983 25.6652 24.1073 25.0531C23.9541 24.0219 23.519 23.9426 21.6475 24.6043ZM54.0096 26.9598C53.883 27.2902 54.0643 27.8754 54.4127 28.2602C54.8342 28.7262 55.0459 29.6746 55.0459 31.0988C55.0459 33.0301 54.9135 33.3656 53.6788 34.5625C52.9268 35.2914 52.3116 36.0797 52.3116 36.3141C52.3116 36.5484 52.8319 37.3492 53.4674 38.093C54.487 39.2855 54.6256 39.7465 54.6393 41.9965L54.6553 44.548L52.3116 46.8672C51.0225 48.143 49.9678 49.4891 49.9678 49.8594C49.9678 51.3762 50.9588 50.9363 53.719 48.1945L56.6084 45.3242V41.9266C56.6084 38.8859 56.5073 38.4086 55.6467 37.3855L54.685 36.2426L55.842 35.1344C56.9264 34.0953 56.9991 33.8387 56.9991 31.0418C56.9991 28.4281 56.887 27.9527 56.0952 27.2086C55.0319 26.2098 54.3295 26.1262 54.0096 26.9598ZM44.9534 32.1711C44.6659 32.3535 44.4901 32.9219 44.5627 33.4348C44.7209 34.5551 46.3256 34.7426 46.9729 33.7164C47.717 32.5363 46.2038 31.3785 44.9534 32.1711ZM33.1709 45.05V53.1937L35.4858 55.4016L37.8006 57.6094H40.5873H43.3741L45.4991 55.5996L47.6241 53.5898V50.4426C47.6241 47.4285 47.5709 47.2402 46.3698 46.0008C45.3217 44.9195 45.1338 44.4523 45.2268 43.1613C45.3151 41.9395 45.1319 41.4098 44.3506 40.6285C42.2557 38.5336 38.6397 39.9527 38.6397 42.8695C38.6397 44.9859 40.9846 46.8141 42.8041 46.116C43.2209 45.9559 43.8522 46.2473 44.5627 46.9281C45.5432 47.8676 45.6709 48.2652 45.6709 50.3766C45.6709 52.6246 45.585 52.8473 44.1897 54.2098C42.8448 55.523 42.5104 55.6562 40.56 55.6562C38.5455 55.6562 38.3092 55.552 36.7678 53.9813L35.1241 52.3063V45.2242C35.1241 41.3289 35.0174 37.8641 34.887 37.5242C34.7565 37.1844 34.317 36.9062 33.9104 36.9062C33.2084 36.9062 33.1709 37.3199 33.1709 45.05ZM22.2373 39.2355C21.7881 40.9035 20.617 41.9844 19.2584 41.9844C18.3748 41.9844 17.9303 42.6129 18.2221 43.4492C18.6647 44.7184 22.2635 43.3762 23.3952 41.5195C24.4538 39.7832 24.4674 37.6875 23.4206 37.6875C22.8581 37.6875 22.5432 38.0996 22.2373 39.2355ZM40.7135 42.2328C40.3905 43.075 41.0846 44.1328 41.96 44.1328C42.8354 44.1328 43.5295 43.075 43.2065 42.2328C42.8858 41.3973 41.0342 41.3973 40.7135 42.2328Z" fill="white"/>
</svg>
