<svg width="58" height="58" viewBox="0 0 58 58" fill="none" xmlns="http://www.w3.org/2000/svg">
<path d="M0 0.5H13C18.5228 0.5 23 4.97715 23 10.5V23.5H10C4.47715 23.5 0 19.0228 0 13.5V0.5Z" fill="#E32721"/>
<path fill-rule="evenodd" clip-rule="evenodd" d="M31.709 10.6624C31.2807 10.8778 31.2218 11.1475 31.2202 12.8989C31.2189 14.4687 31.2273 14.539 31.4475 14.7951C31.7202 15.1123 32.1899 15.152 32.487 14.8831C32.6707 14.7169 32.6836 14.585 32.6836 12.8757C32.6836 11.2736 32.6623 11.0216 32.5127 10.8485C32.2815 10.581 32.0001 10.5159 31.709 10.6624ZM24.9024 12.4968C24.668 12.5836 24.3828 12.9507 24.3828 13.1657C24.3828 13.3391 25.8931 15.9605 26.1733 16.2735C26.5625 16.7083 27.3486 16.4229 27.3416 15.8493C27.3384 15.579 25.9748 13.0949 25.6059 12.6873C25.403 12.4631 25.1667 12.3991 24.9024 12.4968ZM38.6895 12.469C38.3671 12.5372 38.289 12.6437 37.4121 14.2094C36.5361 15.774 36.4809 15.9797 36.8411 16.3399C37.0251 16.5239 37.4683 16.5403 37.6868 16.3712C37.9847 16.1407 39.5196 13.401 39.5196 13.0999C39.5196 12.6836 39.118 12.3784 38.6895 12.469ZM31.1699 15.8226C29.4078 15.9621 27.7115 16.706 26.3094 17.9542C25.3312 18.8251 24.3845 20.3315 23.9904 21.6446L23.7779 22.3526H17.2614H10.745L10.5326 22.5786L10.3203 22.8047V35.4622V48.1198L8.84661 48.1512C6.85032 48.1938 6.97317 48.0247 7.01623 50.6719L7.04885 52.6798L7.36623 53.3241C7.7425 54.088 8.35579 54.6882 9.13137 55.0518L9.68557 55.3116L31.802 55.3366C56.3325 55.3644 54.4204 55.4155 55.4319 54.7049C56.0226 54.2898 56.5109 53.641 56.7556 52.9458C56.8458 52.6893 56.9597 52.4033 57.0087 52.31C57.107 52.1227 57.1343 48.4552 57.0367 48.5529C57.0032 48.5864 56.8973 48.5169 56.8014 48.3982C56.6373 48.1954 56.5376 48.1808 55.1046 48.1514L53.5821 48.1201V35.3948C53.5821 23.6784 53.5693 22.6589 53.4206 22.5354C53.2886 22.4258 52.057 22.3925 46.6679 22.3526L40.0766 22.3038L39.9161 21.7176C39.5105 20.2354 38.3348 18.5127 37.0726 17.5507C35.32 16.215 33.3817 15.6476 31.1699 15.8226ZM31.2188 17.29C29.8598 17.4174 28.3953 18.0943 27.3153 19.0943C25.7383 20.5543 24.884 22.8773 25.1604 24.9541C25.2979 25.9874 25.3728 26.1912 26.2812 28.0049C27.4132 30.265 27.8897 31.8486 28.1022 34.0575C28.1572 34.6291 28.2248 35.3275 28.2527 35.6094L28.3031 36.1221H29.761H31.2188V31.9297V27.7373L30.1534 27.1297C28.9839 26.4627 28.7828 26.2289 28.9767 25.7609C29.0437 25.5992 29.2103 25.4479 29.3906 25.3851C29.6686 25.2882 29.7822 25.3301 30.8411 25.9203L31.9902 26.5607L33.0232 25.9582C33.5912 25.6267 34.1647 25.3555 34.2973 25.3555C34.7591 25.3555 35.0698 25.8149 34.9128 26.2654C34.85 26.4454 34.5198 26.6959 33.7543 27.1442L32.6836 27.7714V31.9467V36.1221H34.1847H35.6858L35.7514 35.1212C35.8506 33.6073 36.1746 31.7948 36.5462 30.6749C36.7295 30.1227 37.2512 28.9362 37.7056 28.0382C38.7618 25.9507 38.883 25.5457 38.8809 24.1104C38.878 22.1272 38.2841 20.7214 36.8371 19.2718C36.122 18.5554 35.7981 18.3112 35.125 17.981C33.8577 17.3592 32.6878 17.1522 31.2188 17.29ZM19.5977 17.6651C19.4779 17.7849 19.4024 17.9906 19.4024 18.1972C19.4024 18.4641 19.4683 18.5828 19.7197 18.7684C20.3207 19.2121 22.5022 20.3995 22.7163 20.3995C23.253 20.3995 23.5906 19.9656 23.4042 19.5157C23.3174 19.306 22.9777 19.0538 22.0533 18.5127C20.0522 17.3412 19.9551 17.3077 19.5977 17.6651ZM42.2511 18.2616C40.7604 19.0967 40.4961 19.308 40.4961 19.6647C40.4961 20.0059 40.8576 20.3995 41.171 20.3995C41.4957 20.3995 44.3493 18.728 44.4976 18.4509C44.5527 18.348 44.5977 18.1807 44.5977 18.0792C44.5977 17.8236 44.1954 17.4698 43.905 17.4698C43.7727 17.4698 43.0284 17.826 42.2511 18.2616ZM11.7852 35.9757V48.1339H32H52.2149V35.9757V23.8175H46.2776H40.3404L40.228 24.823C40.0898 26.0596 39.8196 26.8292 38.832 28.7979C38.0162 30.424 37.6781 31.3328 37.4318 32.5616C37.1082 34.1754 36.9597 36.6233 37.1772 36.7578C37.405 36.8986 37.6641 37.5997 37.6641 38.0753C37.6641 39.1949 36.8018 40.0259 35.6377 40.0278C35.4631 40.0281 35.3203 40.0751 35.3203 40.1322C35.3203 40.1893 35.2025 40.4767 35.0584 40.7709C34.7373 41.4266 34.1195 42.0119 33.3843 42.3565C32.9129 42.5775 32.6989 42.6163 31.9512 42.6163C31.1867 42.6163 30.9999 42.5807 30.5166 42.3434C29.8243 42.0035 29.0372 41.1639 28.8095 40.5228L28.6423 40.0521L28.0686 40.0001C26.5293 39.8605 25.7474 38.2858 26.5964 37.0353C26.8483 36.6643 26.8509 36.6427 26.7893 35.4247C26.7128 33.9109 26.4283 32.1974 26.0748 31.1206C25.9287 30.6757 25.4823 29.6744 25.0828 28.8956C23.9933 26.7718 23.6016 25.5559 23.6016 24.2971V23.8175H17.6934H11.7852V35.9757ZM27.874 37.6934C27.6777 37.8067 27.6446 38.2706 27.8203 38.4464C27.9077 38.5338 28.9624 38.5635 31.9638 38.5635C35.4938 38.5635 36.0089 38.5446 36.1435 38.4101C36.3594 38.1941 36.3341 37.9171 36.0824 37.7408C35.898 37.6116 35.3208 37.5909 31.9565 37.5927C29.5062 37.594 27.9811 37.6316 27.874 37.6934ZM30.2422 40.1389C30.2422 40.1997 30.4297 40.4369 30.6589 40.6661C31.1321 41.1392 31.7154 41.3467 32.2964 41.2485C32.7883 41.1654 33.4703 40.7187 33.6902 40.3358L33.8665 40.0284H32.0544C30.7709 40.0284 30.2422 40.0606 30.2422 40.1389ZM7.04094 50.4776C7.04094 51.525 7.0553 51.9535 7.07288 51.4298C7.09036 50.906 7.09036 50.0492 7.07288 49.5255C7.0553 49.0017 7.04094 49.4302 7.04094 50.4776ZM8.38225 50.9415C8.41174 52.1128 8.44534 52.3438 8.64573 52.7508C8.89866 53.2643 9.3425 53.6531 9.9051 53.8539C10.4216 54.0383 53.3912 54.0577 54.0102 53.8739C54.5387 53.7169 55.2588 52.9967 55.4158 52.4682C55.4823 52.2441 55.5352 51.5203 55.5352 50.8325V49.5987H46.4179H37.3005L37.248 50.4532C37.219 50.9232 37.1251 51.4709 37.0393 51.6703C36.8037 52.2176 36.3059 52.7284 35.7605 52.9824C35.2787 53.2067 35.2228 53.2101 31.9576 53.211C28.8155 53.2119 28.6223 53.2016 28.2302 53.0118C27.2594 52.5419 26.7266 51.5683 26.7266 50.2645V49.5987H17.5375H8.34846L8.38225 50.9415ZM28.1914 50.3345C28.1914 51.1828 28.3428 51.5026 28.843 51.7116C29.3024 51.9036 34.6015 51.9037 35.0549 51.7118C35.6197 51.4727 35.7554 51.2264 35.7943 50.37L35.8293 49.5987H32.0104H28.1914V50.3345ZM13.25 51.0351C12.923 51.1554 12.7617 51.3937 12.7617 51.7567C12.7617 52.3948 12.8928 52.4307 15.2178 52.4307H17.2398L17.4421 52.1734C17.5534 52.0319 17.6446 51.8582 17.6446 51.7874C17.6446 51.5292 17.4219 51.1801 17.1898 51.0743C16.9467 50.9635 13.5368 50.9297 13.25 51.0351ZM19.4006 51.2457C19.0575 51.5887 19.0352 51.8218 19.3118 52.1734L19.5142 52.4307H21.5408C23.533 52.4307 23.5711 52.4269 23.7799 52.2048C24.0419 51.9259 24.052 51.5498 23.8057 51.2453C23.6225 51.0188 23.5844 51.0142 21.6555 50.9846L19.6917 50.9545L19.4006 51.2457Z" fill="white"/>
</svg>
