<svg width="57" height="58" viewBox="0 0 57 58" fill="none" xmlns="http://www.w3.org/2000/svg">
<path d="M0 0.5H13C18.5228 0.5 23 4.97715 23 10.5V23.5H10C4.47715 23.5 0 19.0228 0 13.5V0.5Z" fill="#E32721"/>
<path fill-rule="evenodd" clip-rule="evenodd" d="M31.5292 8.22621C31.3289 8.43959 31.3169 8.5433 31.3169 10.0746V11.697L31.5743 11.8994C31.9091 12.1628 32.1232 12.1548 32.4589 11.8663C32.7298 11.6335 32.7333 11.6163 32.7655 10.3377C32.7832 9.6264 32.7699 8.89496 32.7356 8.71224C32.6086 8.03539 31.9557 7.7724 31.5292 8.22621ZM21.2247 11.3038C21.1358 11.4021 21.063 11.6334 21.063 11.8181C21.063 12.1159 21.1875 12.278 22.1632 13.2508C23.1106 14.1955 23.3072 14.3479 23.5792 14.3479C23.991 14.3479 24.2857 14.0519 24.2857 13.6383C24.2857 13.3619 24.1388 13.1729 23.1855 12.2223C22.1944 11.2339 22.0507 11.1252 21.7358 11.1252C21.5212 11.1252 21.3239 11.1942 21.2247 11.3038ZM40.8086 12.2332C39.8814 13.1731 39.7154 13.3881 39.7154 13.6493C39.7154 14.0529 40.015 14.3479 40.4249 14.3479C40.7016 14.3479 40.8916 14.1998 41.8573 13.2314C42.7899 12.2961 42.9706 12.0665 42.9706 11.8166C42.9706 11.3946 42.6931 11.1252 42.2584 11.1252C41.9333 11.1252 41.8054 11.223 40.8086 12.2332ZM10.0454 13.4756C8.63618 14.1798 8.02114 15.758 8.577 17.2437C8.83227 17.9258 9.49624 18.6244 10.1441 18.8923L10.6022 19.0818L10.6324 21.5812L10.6626 24.0806L10.9556 24.5534C11.1479 24.8636 11.3965 25.1042 11.679 25.2534C12.109 25.4805 12.1125 25.4807 16.0557 25.4807C19.769 25.4807 19.9989 25.4908 19.9494 25.6516C19.6076 26.7607 19.3559 28.9108 19.4349 30.0461L19.4911 30.8518H16.6176H13.7443L13.5333 30.3616C13.2569 29.7188 12.4417 28.9701 11.7787 28.7498C11.1099 28.5277 10.1324 28.5854 9.52055 28.8831C7.26762 29.9793 7.2268 33.1474 9.45132 34.259C9.97212 34.5193 10.1652 34.5626 10.8003 34.5618C12.0459 34.5602 13.005 33.9506 13.5152 32.8364L13.7544 32.3138L16.738 32.3397L19.7216 32.3655L19.9504 33.0703C20.4606 34.6418 21.319 36.11 22.7642 37.883L23.5204 38.8108L19.6793 38.8611C17.1288 38.8946 15.7545 38.9488 15.5888 39.0224C15.1584 39.2136 14.6947 39.6661 14.5083 40.0763C14.35 40.4246 14.3288 40.7542 14.3269 42.8852L14.3248 45.2994L13.8345 45.5104C13.215 45.7769 12.4486 46.5978 12.2355 47.2232C12.1493 47.4763 12.0787 47.9762 12.0787 48.334C12.0787 49.5415 12.8481 50.6336 14.0033 51.0659C15.9369 51.7893 18.0357 50.3674 18.0357 48.334C18.0357 47.9762 17.9651 47.4763 17.8789 47.2232C17.6658 46.5978 16.8994 45.7769 16.2798 45.5104L15.7896 45.2994V43.0496C15.7896 41.6856 15.8294 40.7255 15.8907 40.611C15.9883 40.4286 16.1415 40.4221 20.3782 40.4221H24.7646L25.0595 40.8508C25.7387 41.8379 26.3384 43.3269 26.4826 44.3839C26.5187 44.6488 26.5695 44.9424 26.5954 45.0364C26.6371 45.1871 26.5634 45.2073 25.97 45.2073C25.096 45.2073 24.3728 45.5501 23.9445 46.1676L23.6509 46.5908L23.622 49.2156C23.5906 52.0779 23.6004 52.1412 24.1748 52.7599C24.6402 53.2613 24.9321 53.3578 26.1412 53.4104L27.2642 53.4592L27.3177 54.6799C27.3619 55.6871 27.4096 55.9739 27.5904 56.3197C27.8853 56.8839 28.4463 57.4278 29.0295 57.7148C29.5001 57.9464 29.5628 57.9514 32.0005 57.9514C34.4193 57.9514 34.5041 57.9448 34.9533 57.7216C35.5433 57.4284 36.1252 56.8464 36.4133 56.2615C36.5989 55.8849 36.6479 55.5937 36.688 54.6311L36.7369 53.4592L37.8599 53.4104C39.0673 53.3578 39.3541 53.2633 39.8323 52.7599C40.361 52.2034 40.399 51.972 40.399 49.3109C40.399 47.0176 40.386 46.8376 40.1906 46.4218C39.8236 45.6412 39.0421 45.2073 38.003 45.2073C37.4363 45.2073 37.3642 45.1867 37.4057 45.0364C37.4316 44.9424 37.4824 44.6488 37.5185 44.3839C37.6626 43.3269 38.2624 41.8379 38.9415 40.8508L39.2365 40.4221H43.6229C47.8596 40.4221 48.0127 40.4286 48.1104 40.611C48.1716 40.7255 48.2115 41.6856 48.2115 43.0496V45.2994L47.7212 45.5104C47.1017 45.7769 46.3353 46.5978 46.1222 47.2232C46.036 47.4763 45.9654 47.9762 45.9654 48.334C45.9654 49.5415 46.7348 50.6336 47.89 51.0659C49.8236 51.7893 51.9224 50.3674 51.9224 48.334C51.9224 47.9762 51.8518 47.4763 51.7656 47.2232C51.5525 46.5978 50.7861 45.7769 50.1665 45.5104L49.6763 45.2994L49.6742 42.8852C49.6723 40.7542 49.651 40.4246 49.4927 40.0763C49.3064 39.6661 48.8426 39.2136 48.4123 39.0224C48.2465 38.9488 46.8723 38.8946 44.3217 38.8611L40.4807 38.8108L41.2369 37.883C42.6821 36.11 43.5405 34.6418 44.0506 33.0703L44.2794 32.3655L47.263 32.3397L50.2466 32.3138L50.4859 32.8364C50.996 33.9506 51.9551 34.5602 53.2007 34.5618C53.8359 34.5626 54.029 34.5193 54.5498 34.259C56.7654 33.1519 56.7372 29.9809 54.502 28.8935C53.868 28.5851 52.9018 28.5242 52.2224 28.7498C51.5593 28.9701 50.7442 29.7188 50.4677 30.3616L50.2568 30.8518H47.3818H44.5067L44.5634 30.095C44.6473 28.9774 44.3917 26.7555 44.0528 25.6547C44.0045 25.4983 44.2746 25.4851 48.0435 25.4594L52.0859 25.4319L52.4751 25.162C52.6893 25.0135 52.9711 24.7059 53.1015 24.4784C53.3328 24.0746 53.3391 24.0047 53.3687 21.5732L53.3989 19.0818L53.857 18.8923C54.5048 18.6244 55.1688 17.9258 55.4241 17.2437C56.1465 15.3125 54.8815 13.3277 52.8449 13.197C51.8963 13.1362 51.2948 13.343 50.6158 13.9635C49.9253 14.5946 49.647 15.2269 49.6452 16.1691C49.644 16.7324 49.6951 16.972 49.9091 17.4096C50.2252 18.0558 51.003 18.7909 51.5411 18.9521L51.9224 19.0663V21.3241C51.9224 23.2094 51.8973 23.6176 51.7704 23.7988L51.6184 24.0159H47.5427H43.467L43.2006 23.4727C41.9485 20.9198 39.531 18.7318 36.7605 17.6442C35.0502 16.9729 34.2851 16.8443 32.0005 16.8443C30.2924 16.8443 29.8672 16.8751 29.1037 17.0547C27.2278 17.4959 24.9305 18.6036 24.7496 19.154C24.632 19.5113 24.8406 19.9303 25.1987 20.0563C25.4412 20.1415 25.5858 20.0952 26.3372 19.6912C28.1602 18.7113 29.45 18.3578 31.4774 18.2831C33.2625 18.2173 34.2065 18.336 35.6138 18.803C39.4821 20.0867 42.1057 23.1155 42.9033 27.218C43.1283 28.3756 43.124 30.6243 42.8948 31.6819C42.4888 33.5554 41.7865 34.8295 39.7985 37.2991C38.0746 39.4405 37.6809 39.9905 37.1276 41.0306C36.5672 42.084 36.2329 43.0624 36.0506 44.1819C35.9719 44.6653 35.9074 45.0937 35.9072 45.134C35.907 45.1744 35.2037 45.2073 34.3443 45.2073H32.7818V39.7873V34.3674H33.8916C34.8666 34.3674 35.0329 34.3428 35.2588 34.165C35.5952 33.9004 35.6096 33.4151 35.2902 33.1149C35.0679 32.9062 35.012 32.9026 31.9869 32.9026H28.9096L28.6972 33.1286C28.3968 33.4484 28.4167 33.909 28.7422 34.165C28.9682 34.3428 29.1344 34.3674 30.1094 34.3674H31.2193V39.7873V45.2073H29.6568C28.7974 45.2073 28.0943 45.1691 28.0943 45.1224C28.0943 44.8157 27.7611 43.195 27.5897 42.6682C27.0998 41.1622 26.4095 40.052 24.4322 37.5901C22.8199 35.5827 22.2724 34.7851 21.7904 33.7417C20.1365 30.162 20.8284 25.29 23.4399 22.1274C23.9199 21.5461 23.9563 21.164 23.5641 20.8266C23.2093 20.5214 22.9932 20.5382 22.5772 20.9036C22.1892 21.2442 21.015 22.9583 20.7295 23.6008L20.5451 24.0159H16.4639H12.3827L12.2307 23.7988C12.1038 23.6176 12.0787 23.2094 12.0787 21.3241V19.0663L12.46 18.9521C12.9981 18.7909 13.7758 18.0558 14.0919 17.4096C14.3069 16.9703 14.3573 16.7318 14.3573 16.1545C14.3573 15.2488 14.0388 14.5479 13.3427 13.922C12.7549 13.3936 12.158 13.176 11.2957 13.176C10.7649 13.176 10.5345 13.2312 10.0454 13.4756ZM10.6 14.8516C9.89214 15.262 9.63696 16.1745 10.0345 16.8737C10.332 17.3969 10.6688 17.604 11.293 17.6476C11.7391 17.6788 11.8938 17.6452 12.171 17.4568C13.1136 16.8161 13.1187 15.4928 12.181 14.8609C11.7547 14.5737 11.0861 14.5697 10.6 14.8516ZM51.8201 14.8609C50.8766 15.4967 50.8766 16.8123 51.8201 17.4482C52.7564 18.0791 54.1685 17.3013 54.1685 16.1545C54.1685 15.0078 52.7564 14.2299 51.8201 14.8609ZM10.068 30.2495C9.12417 30.8432 8.99311 31.941 9.77563 32.6995C10.0448 32.9602 10.216 33.0376 10.6072 33.0751C11.208 33.1329 11.5946 32.986 11.9715 32.5567C12.3841 32.0868 12.4485 31.5495 12.161 30.9762C11.8594 30.3751 11.5257 30.1452 10.8864 30.0979C10.4953 30.069 10.2964 30.1058 10.068 30.2495ZM52.5572 30.2076C51.6577 30.6045 51.3842 31.8217 52.0295 32.5567C52.4065 32.986 52.7931 33.1329 53.3939 33.0751C54.5608 32.963 55.1477 31.5478 54.3971 30.6559C53.9214 30.0906 53.2131 29.9179 52.5572 30.2076ZM14.5869 46.8124C13.8405 47.0809 13.4994 47.6034 13.5637 48.3794C13.6121 48.9621 13.832 49.3074 14.338 49.5952C15.3339 50.1615 16.5708 49.3949 16.5708 48.2114C16.5708 47.2148 15.5228 46.4758 14.5869 46.8124ZM25.4087 46.7888C25.1016 46.9629 25.0701 47.0632 25.0684 47.8684L25.0669 48.6252H27.5636C29.1367 48.6252 30.1319 48.6635 30.2539 48.7288C30.7222 48.9795 30.6782 49.754 30.1827 49.9797C30.0234 50.0523 29.1069 50.0901 27.5038 50.0901H25.0669V50.8562C25.0669 51.4744 25.1014 51.6536 25.2456 51.7839C25.408 51.931 26.02 51.9455 32.0271 51.9455H38.6301L38.7821 51.7285C38.8859 51.5803 38.9341 51.286 38.9341 50.8007V50.0901H36.3029C33.6844 50.0901 33.6703 50.089 33.4057 49.8614C33.0609 49.5648 33.0404 49.066 33.3623 48.8053C33.5664 48.6401 33.8055 48.6252 36.2594 48.6252H38.9341V47.8511C38.9341 46.5605 39.5881 46.6715 32.0118 46.675C27.4197 46.6772 25.5487 46.7094 25.4087 46.7888ZM48.4736 46.8124C47.7272 47.0809 47.3861 47.6034 47.4504 48.3794C47.4988 48.9621 47.7187 49.3074 48.2248 49.5952C49.2206 50.1615 50.4576 49.3949 50.4576 48.2114C50.4576 47.2148 49.4095 46.4758 48.4736 46.8124ZM28.7779 54.4213C28.7779 55.3089 28.8046 55.4717 28.9976 55.7551C29.4917 56.4811 29.514 56.4866 32.0005 56.4866C34.1023 56.4866 34.248 56.4748 34.502 56.2852C35.0869 55.8486 35.1717 55.6312 35.2074 54.4778L35.2405 53.4104H32.0091H28.7779V54.4213Z" fill="#1C3761"/>
</svg>
