<svg width="57" height="58" viewBox="0 0 57 58" fill="none" xmlns="http://www.w3.org/2000/svg">
<path d="M0 0.5H13C18.5228 0.5 23 4.97715 23 10.5V23.5H10C4.47715 23.5 0 19.0228 0 13.5V0.5Z" fill="#E32721"/>
<path fill-rule="evenodd" clip-rule="evenodd" d="M26.0532 9.67058C21.532 10.1819 17.5115 12.117 14.318 15.3187C12.5875 17.0537 11.4621 18.638 10.4484 20.7664C7.95469 26.0023 7.95469 32.1922 10.4484 37.4281C11.4622 39.5567 12.5876 41.141 14.318 42.8757C18.2426 46.81 23.4493 48.8371 28.9969 48.5904L30.4373 48.5263V50.244C30.4373 51.2472 30.4796 52.0406 30.539 52.1515C30.6596 52.377 32.0468 53.0899 33.3577 53.6003C38.1656 55.4717 42.8811 55.2657 47.6887 52.9739C48.4382 52.6167 49.0179 52.2783 49.0803 52.1616C49.1531 52.0256 49.1876 50.6096 49.1884 47.7316L49.1895 43.5015L50.6622 42.8179C51.4722 42.442 52.1748 42.1197 52.2236 42.1018C52.2751 42.0829 52.3123 42.9942 52.3123 44.2747C52.3123 46.2107 52.2937 46.48 52.1595 46.48C52.0754 46.48 51.7757 46.7109 51.4935 46.9931C50.5311 47.9556 50.4949 49.1808 51.3994 50.1869L51.8169 50.6511L51.5227 51.3514C51.1244 52.2992 50.8639 53.5347 50.7859 54.8442C50.7216 55.9253 50.7229 55.9347 50.9752 56.187L51.2292 56.441H53.0936H54.9579L55.2119 56.187C55.4642 55.9347 55.4655 55.9253 55.4012 54.8442C55.3232 53.5347 55.0627 52.2992 54.6645 51.3514L54.3702 50.6511L54.792 50.1821C55.4815 49.4151 55.6108 48.4687 55.1495 47.5644C54.9453 47.1641 54.2225 46.48 54.0037 46.48C53.8998 46.48 53.8748 45.9053 53.8748 43.5124C53.8748 40.8265 53.8586 40.5259 53.7039 40.3467C53.6099 40.2378 51.874 39.3703 49.8465 38.4189C47.8189 37.4676 46.16 36.6701 46.16 36.6467C46.16 36.6234 46.337 36.0841 46.5534 35.4481C48.6726 29.2215 47.5831 22.5306 43.5874 17.232C42.7371 16.1044 40.9046 14.3074 39.6939 13.414C37.1977 11.572 34.4221 10.3816 31.4139 9.86286C30.0065 9.62009 27.3439 9.52468 26.0532 9.67058ZM25.7986 11.2738C25.2615 11.3501 24.4266 11.5077 23.9432 11.6242C23.1312 11.8198 21.2793 12.4212 20.9841 12.5849C20.8988 12.6323 21.1595 12.8857 21.7771 13.3561C22.9631 14.2593 24.4155 15.7838 24.9467 16.6828C25.6354 17.8485 25.8877 18.7113 25.8923 19.9176C25.8957 20.7902 25.8544 21.0707 25.6152 21.8004C25.1562 23.201 24.3766 24.2944 23.3171 25.0233C23.0789 25.1872 22.3983 25.5359 21.8048 25.7983C20.447 26.3985 20.1246 26.6449 19.8165 27.3178C19.6021 27.7862 19.5608 28.0548 19.4916 29.4326C19.3706 31.8389 19.11 33.1099 18.4825 34.3532C18.035 35.2401 17.4843 35.8351 16.7479 36.2276C16.231 36.5032 16.0032 36.5634 15.3464 36.5978C14.3053 36.6525 13.5586 36.4598 12.2546 35.7999L11.2105 35.2716L11.3967 35.7439C11.7348 36.6015 12.5366 38.1167 13.1248 39.0093C14.9231 41.7383 17.3849 43.8675 20.4062 45.3072C21.4402 45.7999 23.6052 46.5777 23.9424 46.5777C24.0081 46.5777 24.0436 46.4647 24.0268 46.3092C23.5973 42.3389 23.0979 40.3384 21.9965 38.176C21.1856 36.5842 21.0273 36.0341 21.0818 34.9961C21.1177 34.3143 21.1696 34.1139 21.4136 33.7176C22.2292 32.3923 23.9239 32.0519 25.6573 32.8654C26.104 33.0751 26.5587 33.2315 26.6677 33.2131C26.9429 33.1664 27.5252 32.7486 28.3865 31.9798C30.096 30.454 30.9415 30.0271 32.1293 30.0907C33.6 30.1693 35.0068 31.3563 35.458 32.8992C35.6265 33.4752 35.6547 34.551 35.5196 35.2496C35.4729 35.4913 35.4462 35.7007 35.4603 35.7149C35.4743 35.7292 36.4264 35.2976 37.5759 34.7559C39.0033 34.0833 39.7432 33.7843 39.91 33.8131C40.0442 33.8361 40.5863 34.0592 41.1147 34.3088C41.6429 34.5585 42.0604 34.7294 42.0424 34.6887C42.0243 34.648 41.8292 34.3072 41.6088 33.9312C41.3884 33.5552 41.0148 32.8985 40.7787 32.4718C39.972 31.014 39.0925 30.3685 37.1756 29.8275C34.3228 29.0222 32.4462 27.4874 32.0006 25.5946C31.571 23.7699 32.7443 22.0949 34.8568 21.5174C35.1385 21.4404 35.9842 21.3359 36.7361 21.2853C38.2973 21.1802 39.2855 20.9555 40.35 20.4636C41.0524 20.1391 42.1241 19.47 42.6291 19.0406L42.858 18.8461L42.2264 18.039C41.2196 16.7528 41.3393 16.7973 40.4351 17.3728C39.3051 18.0921 38.2003 18.4736 37.2184 18.4838C36.504 18.4911 36.3607 18.4585 35.6702 18.1305C35.2244 17.9188 34.7616 17.7691 34.5529 17.7691C34.3569 17.7691 33.5097 18.006 32.6701 18.2955C30.9061 18.9038 30.3388 19.0071 29.6582 18.8438C29.1307 18.7173 28.3847 18.1401 28.1419 17.6706C27.4447 16.3224 28.055 14.5261 30.0322 12.1066C30.6072 11.4029 30.6213 11.3726 30.4113 11.2912C30.013 11.1368 26.848 11.1249 25.7986 11.2738ZM31.8101 12.4224C29.9799 14.5015 29.1748 16.0551 29.5107 16.8593C29.5851 17.0372 29.7601 17.2347 29.8995 17.2983C30.2113 17.4404 30.8236 17.2978 32.5369 16.6842C33.56 16.3177 33.8142 16.2638 34.5389 16.2599C35.302 16.2558 35.4354 16.2861 36.1931 16.6354C36.9995 17.0074 37.0295 17.0132 37.5929 16.9084C38.1765 16.7999 39.3661 16.265 39.8123 15.9105L40.0564 15.7166L39.617 15.3241C38.8428 14.6326 37.0653 13.5012 35.8084 12.9C34.6552 12.3482 32.9347 11.7144 32.5902 11.7144C32.5039 11.7144 32.1528 12.0331 31.8101 12.4224ZM18.1123 14.1818C16.0699 15.5615 14.5572 17.0654 13.2357 19.0302C11.0565 22.2704 10.0137 25.9036 10.1638 29.732C10.1975 30.5914 10.2847 31.6178 10.3574 32.0131C10.5091 32.8362 10.5053 32.8319 11.9922 33.8368C13.0932 34.5808 13.9614 34.9592 14.7294 35.0293C15.5313 35.1025 15.9418 34.9944 16.386 34.593C17.3584 33.7145 17.7775 32.3109 17.9359 29.4021C18.1048 26.3007 18.5152 25.6565 21.1228 24.4009C22.2234 23.8708 22.6582 23.6044 23.0314 23.2311C23.567 22.6956 23.9967 21.8679 24.2447 20.8943C24.8152 18.6544 23.3121 16.2365 19.9307 13.9548C19.5374 13.6893 19.2026 13.4729 19.1868 13.4738C19.171 13.4748 18.6874 13.7933 18.1123 14.1818ZM42.9861 20.7123C42.0348 21.3948 41.2354 21.8281 40.2843 22.1766C39.1444 22.5943 38.4078 22.7363 36.8338 22.8418C36.0671 22.8931 35.2736 23.0018 35.0271 23.0894C33.1656 23.7505 32.9543 25.3196 34.5304 26.7788C35.2166 27.4141 36.2019 27.9116 37.5662 28.3116C39.5199 28.8844 40.734 29.6439 41.6034 30.8373C41.7866 31.0887 42.2166 31.8189 42.559 32.4598C43.2106 33.6799 44.0317 34.6647 44.672 34.9942C45.0412 35.1842 45.0089 35.2298 45.3622 34.0254C46.5832 29.8641 46.1898 25.3382 44.2571 21.3092C43.9673 20.705 43.7165 20.2131 43.6999 20.2162C43.6833 20.2193 43.3621 20.4425 42.9861 20.7123ZM31.1697 31.8005C30.7786 32.0092 30.2812 32.4006 29.1678 33.375C27.4677 34.863 26.579 35.0962 25.2541 34.402C24.6319 34.0761 24.4576 34.0289 23.8784 34.0289C23.2948 34.0289 23.1848 34.0592 22.962 34.2821C22.372 34.872 22.4706 35.671 23.3464 37.3946C24.0812 38.8407 24.3968 39.6851 24.7712 41.2066C25.0991 42.5391 25.3103 43.729 25.4559 45.064C25.6448 46.7978 25.6553 46.8509 25.8187 46.9136C26.1124 47.0264 28.3337 47.0934 29.3875 47.0214L30.4373 46.9496L30.437 45.2256L30.4368 43.5015L28.229 42.4761C27.0148 41.9122 25.9603 41.364 25.8855 41.2581C25.711 41.0104 25.7121 40.619 25.888 40.3739C25.9641 40.2679 27.7189 39.3902 29.7878 38.4234L33.5493 36.6656L33.773 35.8843C34.0599 34.8831 34.0902 33.4093 33.8337 32.9406C33.6296 32.5676 33.1327 32.0599 32.7338 31.8167C32.3667 31.5927 31.5742 31.5845 31.1697 31.8005ZM34.1238 38.1024C31.022 39.5627 28.4842 40.7838 28.4842 40.8161C28.4842 40.8484 31.0343 42.0745 34.151 43.5407L39.8178 46.2067L44.6629 43.9263L49.5079 41.6461L44.4562 41.5972L39.4043 41.5484L39.2177 41.3178C39.115 41.1911 39.0311 40.9652 39.0311 40.816C39.0311 40.6668 39.115 40.4409 39.2177 40.3141L39.4043 40.0836L44.4558 40.0347L49.5072 39.9859L44.6796 37.7154C42.0243 36.4666 39.8319 35.4455 39.8076 35.4462C39.7834 35.4468 37.2256 36.6422 34.1238 38.1024ZM31.9998 47.7449V51.2628L32.659 51.5936C34.7896 52.6629 37.4922 53.3122 39.8123 53.3122C42.1324 53.3122 44.835 52.6629 46.9656 51.5936L47.6248 51.2628V47.7449C47.6248 44.266 47.6227 44.2282 47.431 44.3308C46.5898 44.781 39.945 47.8472 39.8106 47.8472C39.679 47.8472 33.022 44.7722 32.1707 44.3182C32.0094 44.2322 31.9998 44.425 31.9998 47.7449ZM52.5521 48.087C52.4009 48.2381 52.3123 48.4383 52.3123 48.6285C52.3123 48.8187 52.4009 49.0189 52.5521 49.17C52.7031 49.3212 52.9033 49.4097 53.0936 49.4097C53.2838 49.4097 53.484 49.3212 53.6351 49.17C53.7862 49.0189 53.8748 48.8187 53.8748 48.6285C53.8748 48.4383 53.7862 48.2381 53.6351 48.087C53.484 47.9358 53.2838 47.8472 53.0936 47.8472C52.9033 47.8472 52.7031 47.9358 52.5521 48.087ZM52.767 52.5103C52.6364 52.9265 52.5003 53.5089 52.4646 53.8043C52.4289 54.0997 52.3765 54.4623 52.3482 54.6099L52.2968 54.8785H53.0936H53.8903L53.8389 54.6099C53.8106 54.4623 53.7582 54.0997 53.7226 53.8043C53.6429 53.146 53.2158 51.7535 53.0936 51.7535C53.0445 51.7535 52.8976 52.0941 52.767 52.5103Z" fill="white"/>
</svg>
