<svg width="57" height="58" viewBox="0 0 57 58" fill="none" xmlns="http://www.w3.org/2000/svg">
<path d="M0 0H13C18.5228 0 23 4.47715 23 10V23H10C4.47715 23 0 18.5228 0 13V0Z" fill="#E32721"/>
<path fill-rule="evenodd" clip-rule="evenodd" d="M7.78125 8.28125C7.03516 9.02734 7 9.5832 7 20.6941C7 30.5898 7.09062 32.4559 7.6082 33.1941C8.1668 33.9918 8.53008 34.0625 12.0789 34.0625H15.9414L16.0605 42.4207C16.1684 49.9945 16.2496 50.8563 16.9238 51.6004C17.6387 52.3895 18.0191 52.4219 26.5918 52.4219H35.5156L37.1176 54.0238C39.4699 56.3762 41.7414 57.2867 45.2812 57.2965C47.707 57.3031 48.5926 57.1172 50.4305 56.2148C60.0168 51.507 58.6355 37.3336 48.3336 34.7008L46.2578 34.1699L46.0625 26.6766L45.8672 19.1832L42.5035 15.8809L39.1398 12.5781H33.0309H26.9219V10.8203C26.9219 9.5832 26.6902 8.83086 26.1406 8.28125C25.4078 7.54844 24.8387 7.5 16.9609 7.5C9.0832 7.5 8.51406 7.54844 7.78125 8.28125ZM8.74219 9.54766C8.63672 9.82344 8.59688 15.0566 8.65391 21.177L8.75781 32.3047H16.9609H25.1641V20.7812V9.25781L17.0492 9.15234C10.7289 9.06992 8.89219 9.15742 8.74219 9.54766ZM10.7762 11.2762C10.6328 11.4191 10.5156 13.5098 10.5156 15.9219C10.5156 19.5602 10.6207 20.3473 11.1336 20.5441C11.4734 20.6746 14.2797 20.7812 17.3699 20.7812C24.0352 20.7812 23.7969 20.9625 23.7969 15.8984C23.7969 10.807 24.0871 11.0156 17.0121 11.0156C13.7258 11.0156 10.9191 11.1328 10.7762 11.2762ZM12.0781 15.8984V19.2188H16.9609H21.8438V15.8984V12.5781H16.9609H12.0781V15.8984ZM26.9219 23.4551C26.9219 34.7477 27.2586 34.0625 21.7074 34.0625H17.9219L18.0273 42.3633L18.1328 50.6641L26.4785 50.7695C34.3223 50.8687 34.8082 50.8336 34.559 50.1844C31.9836 43.4727 35.9531 35.9566 42.8273 34.5301L44.3047 34.2234L44.4117 27.5023L44.5184 20.7812H41.9703C38.4973 20.7812 37.8594 20.1449 37.8594 16.6797V14.1406H32.3906H26.9219V23.4551ZM39.4973 17.3633C39.6168 19.0152 39.6254 19.0238 41.2773 19.1434C42.1906 19.2098 42.9375 19.1133 42.9375 18.9297C42.9375 18.5195 40.0906 15.7031 39.6758 15.7031C39.5113 15.7031 39.4309 16.4504 39.4973 17.3633ZM10.6641 22.9109C10.3242 23.7969 10.8473 24.2969 12.1133 24.2969C13.3973 24.2969 14.1039 23.2676 13.2094 22.7008C12.3602 22.1633 10.9051 22.2836 10.6641 22.9109ZM15.6813 22.8031C15.3457 23.1387 15.3375 23.4023 15.6508 23.7797C16.3781 24.6562 18.7188 24.3059 18.7188 23.3203C18.7188 22.3707 16.4926 21.9918 15.6813 22.8031ZM20.7695 22.6023C20.082 22.8797 20.1617 23.777 20.8992 24.0598C21.9039 24.4453 22.8902 24.3328 23.3492 23.7797C24.1758 22.784 22.3664 21.9582 20.7695 22.6023ZM29.7301 24.9805C29.8469 25.5891 30.4996 25.6758 35.6859 25.7727C39.9727 25.8523 41.5891 25.7543 41.8078 25.4004C41.9711 25.1363 42.018 24.7801 41.9121 24.6086C41.8063 24.4371 38.9926 24.2969 35.6594 24.2969C30.098 24.2969 29.6098 24.3531 29.7301 24.9805ZM10.5156 26.6406C10.5156 27.359 10.7102 27.4531 11.9805 27.3477C12.9684 27.266 13.4453 27.0355 13.4453 26.6406C13.4453 26.2457 12.9684 26.0152 11.9805 25.9336C10.7102 25.8281 10.5156 25.9223 10.5156 26.6406ZM15.3906 26.2625C14.9449 26.9836 15.7848 27.4883 17.2043 27.3527C19.0734 27.1738 18.9898 26.0938 17.0949 25.9355C16.309 25.8703 15.5422 26.0172 15.3906 26.2625ZM20.4688 26.2625C20.023 26.9836 20.8629 27.4883 22.2824 27.3527C24.1516 27.1738 24.068 26.0938 22.173 25.9355C21.3871 25.8703 20.6203 26.0172 20.4688 26.2625ZM29.8047 28.7703C29.3414 29.9781 30.0973 30.1562 35.6863 30.1562C39.8504 30.1562 41.3891 30.0242 41.7086 29.6391C42.6484 28.5066 41.3609 28.2031 35.6207 28.2031C31.0867 28.2031 29.9809 28.3109 29.8047 28.7703ZM10.9469 29.3414C10.0383 29.9168 10.7617 30.9375 12.0781 30.9375C12.8148 30.9375 13.3668 30.6973 13.5145 30.3121C13.7688 29.6496 13.0555 28.9965 12.0781 28.9965C11.7559 28.9965 11.2469 29.1516 10.9469 29.3414ZM15.8652 29.4184C14.8871 29.9875 15.7102 30.9375 17.1809 30.9375C18.4859 30.9375 18.9711 30.3449 18.3141 29.5531C17.7633 28.8898 16.8594 28.8398 15.8652 29.4184ZM20.6859 29.5531C20.0289 30.3449 20.5141 30.9375 21.8191 30.9375C23.3367 30.9375 24.1242 29.9684 23.0664 29.4023C21.998 28.8305 21.2465 28.8781 20.6859 29.5531ZM29.6562 33.2812C29.6562 34.0285 29.9168 34.0625 35.6457 34.0625C38.9402 34.0625 41.7406 33.9574 41.8688 33.8289C41.9973 33.7004 42.0078 33.3488 41.8922 33.0477C41.7246 32.6105 40.4672 32.5 35.6691 32.5C29.9168 32.5 29.6562 32.534 29.6562 33.2812ZM41.1797 36.7266C39.1922 37.6598 36.5434 40.5309 35.916 42.4316C35.6438 43.2563 35.4969 45.0598 35.5812 46.5473C35.7781 50.0371 37.2344 52.4992 40.1277 54.2344C42.5961 55.7148 44.8395 56.1078 47.5281 55.5312C52.5051 54.4637 55.973 49.4246 55.2141 44.3629C54.8277 41.7855 52.8324 38.7832 50.5852 37.3969C48.959 36.3938 48.2066 36.1941 45.7023 36.1016C43.4492 36.0188 42.3691 36.168 41.1797 36.7266ZM20.4555 37.2215C19.8684 38.1715 21.1691 38.3758 27.1422 38.2719C32.7008 38.1754 33.3711 38.0918 33.4887 37.4805C33.6094 36.8516 33.1023 36.7969 27.1688 36.7969C22.9449 36.7969 20.6273 36.9434 20.4555 37.2215ZM43.5773 38.7137C41.7434 40.0156 41.2969 40.7582 41.2969 42.5051C41.2969 44.1031 42.2254 45.6516 43.5441 46.2523C44.4016 46.643 44.5 46.9262 44.5 49.0016C44.5 51.8195 43.6234 51.9203 42.7828 49.1992C42.4129 48.0031 41.375 48.3855 41.375 49.7176C41.375 50.8484 42.0703 51.7641 44.2445 53.4961C45.291 54.3297 45.4199 54.2824 47.9316 52.1461C49.6043 50.723 49.9324 48.8273 48.8152 47.041C48.3754 46.3375 47.5758 45.5949 47.0391 45.3906C46.1445 45.0504 46.0625 44.8188 46.0625 42.6332C46.0625 39.8922 46.6152 39.6777 47.7203 41.9895C48.4184 43.4496 49.5797 43.6574 49.5766 42.3215C49.5742 41.2516 48.077 39.1445 47.0391 38.75C46.502 38.5457 46.0625 38.1984 46.0625 37.9785C46.0625 37.3172 45.1734 37.5801 43.5773 38.7137ZM43.25 41.3047C42.7473 42.4074 43.182 44.2367 44.0117 44.5125C44.3633 44.6293 44.5 44.0645 44.5 42.4934C44.5 40.1598 43.9918 39.6766 43.25 41.3047ZM20.7695 40.9617C20.082 41.2391 20.1617 42.1363 20.8992 42.4191C21.8613 42.7883 30.9574 42.6859 31.5688 42.2992C31.8684 42.1094 32.0059 41.6723 31.8738 41.3285C31.6695 40.7961 30.8609 40.7078 26.4457 40.734C23.5926 40.7508 21.0383 40.8535 20.7695 40.9617ZM20.4625 45.4137C19.8852 46.3477 21.1055 46.5832 25.977 46.477C30.1535 46.3859 31.0234 46.266 31.0234 45.7812C31.0234 45.2957 30.143 45.1766 25.8777 45.0867C22.4035 45.0129 20.6441 45.1191 20.4625 45.4137ZM46.0625 49.1016C46.0625 51.2953 46.3703 51.7051 47.2355 50.6629C48.1465 49.5648 47.5621 46.9531 46.4055 46.9531C46.2168 46.9531 46.0625 47.9199 46.0625 49.1016Z" fill="white"/>
</svg>
